#!OML:ASF H:\Punching\Project 1\Capture day 1\Session 1\female.ASF
:FULLY-SPECIFIED
:DEGREES
1079
root -1.5897 14.8615 9.03736 17.2088 5.44468 4.31603
lowerback 2.49461 -0.89641 1.52936
upperback -4.58273 -1.14319 -0.502129
thorax -6.19652 -0.65192 -1.28914
lowerneck -12.5857 -5.1423 1.72107
upperneck 21.4062 -7.88389 1.51871
head 8.7589 -3.40085 -0.650914
rclavicle -2.88238e-015 -1.98785e-015
rhumerus -14.9743 36.2076 -67.5858
rradius 73.5794
rwrist -33.2025
rhand -4.7883 -13.2631
rfingers 7.12502
rthumb 20.9968 -42.1466
lclavicle -2.88238e-015 -1.98785e-015
lhumerus -36.162 -44.525 102.724
lradius 117.39
lwrist -4.8811
lhand -22.2191 5.79039
lfingers 7.12502
lthumb 4.19717 35.7288
rfemur -46.744 -7.96373 8.87614
rtibia 55.4269
rfoot -18.6865 -11.2467
rtoes -8.65093
lfemur -4.58227 -7.05397 -5.61631
ltibia 10.6336
lfoot -14.8113 15.4518
ltoes -19.9348
1080
root -1.51775 14.8823 9.00678 16.9313 5.4994 4.08963
lowerback 2.52682 -0.89607 1.57823
upperback -4.60474 -1.1385 -0.485886
thorax -6.23902 -0.651905 -1.29934
lowerneck -12.6561 -4.9682 1.9666
upperneck 21.6636 -7.6771 1.37304
head 8.84396 -3.29195 -0.723257
rclavicle -8.84592e-015 -7.15625e-015
rhumerus -15.7602 35.4932 -69.3285
rradius 75.5713
rwrist -35.6808
rhand -4.69183 -14.0872
rfingers 7.12502
rthumb 21.0895 -42.9603
lclavicle -8.84592e-015 -7.15625e-015
lhumerus -35.8797 -44.6381 102.915
lradius 116.98
lwrist -5.0747
lhand -22.08 5.81703
lfingers 7.12502
lthumb 4.33152 35.7527
rfemur -46.1032 -7.73795 8.71945
rtibia 54.6165
rfoot -18.1705 -11.4096
rtoes -8.85668
lfemur -5.00103 -7.00676 -5.70173
ltibia 11.7591
lfoot -15.2518 15.3728
ltoes -19.9998
1081
root -1.44234 14.9033 8.97382 16.6779 5.50572 3.86073
lowerback 2.50921 -0.891326 1.59525
upperback -4.60817 -1.12919 -0.446153
thorax -6.23166 -0.646987 -1.26851
lowerneck -12.7392 -4.78729 2.19488
upperneck 21.9031 -7.456 1.22546
head 8.92705 -3.17824 -0.792025
rclavicle -2.02263e-014 1.98785e-015
rhumerus -16.4632 34.7948 -71.028
rradius 77.4664
rwrist -37.8714
rhand -4.54709 -14.724
rfingers 7.12502
rthumb 21.2285 -43.5815
lclavicle -2.02263e-014 1.98785e-015
lhumerus -35.5306 -44.736 103.082
lradius 116.537
lwrist -5.21254
lhand -21.9729 5.83129
lfingers 7.12502
lthumb 4.4349 35.7649
rfemur -45.4955 -7.4681 8.54335
rtibia 53.7663
rfoot -17.6128 -11.5718
rtoes -9.07076
lfemur -5.37032 -6.94594 -5.8134
ltibia 12.7547
lfoot -15.6414 15.3439
ltoes -20.0677
1082
root -1.36333 14.9247 8.93829 16.4527 5.46056 3.62862
lowerback 2.44316 -0.880534 1.59044
upperback -4.59358 -1.11289 -0.388621
thorax -6.17615 -0.636634 -1.20836
lowerneck -12.8326 -4.59784 2.41924
upperneck 22.1167 -7.21974 1.07184
head 9.00427 -3.05903 -0.860375
rclavicle -2.61899e-014 3.57812e-015
rhumerus -17.0842 34.1038 -72.694
rradius 79.2627
rwrist -39.7757
rhand -4.34652 -15.1743
rfingers 7.12502
rthumb 21.4212 -44.0101
lclavicle -2.61899e-014 3.57812e-015
lhumerus -35.1197 -44.8312 103.221
lradius 116.071
lwrist -5.30796
lhand -21.9106 5.83851
lfingers 7.12502
lthumb 4.49511 35.7708
rfemur -44.9256 -7.15299 8.34734
rtibia 52.8728
rfoot -17.0093 -11.7288
rtoes -9.29094
lfemur -5.70178 -6.86903 -5.95007
ltibia 13.638
lfoot -15.996 15.3597
ltoes -20.1614
1083
root -1.28043 14.9469 8.90023 16.2516 5.38394 3.40335
lowerback 2.35079 -0.870593 1.57106
upperback -4.57109 -1.0984 -0.319292
thorax -6.09664 -0.62601 -1.1281
lowerneck -12.9168 -4.40149 2.63899
upperneck 22.3018 -6.97028 0.914814
head 9.07125 -2.93539 -0.926881
rclavicle 7.30534e-015 -1.98785e-015
rhumerus -17.6511 33.4247 -74.3431
rradius 80.9655
rwrist -41.4269
rhand -4.04269 -15.5279
rfingers 7.12502
rthumb 21.713 -44.3302
lclavicle 7.30534e-015 -1.98785e-015
lhumerus -34.6847 -44.9228 103.352
lradius 115.591
lwrist -5.39089
lhand -21.8869 5.8412
lfingers 7.12502
lthumb 4.51801 35.773
rfemur -44.3767 -6.81328 8.12285
rtibia 51.9322
rfoot -16.3616 -11.879
rtoes -9.52784
lfemur -6.00006 -6.79063 -6.11737
ltibia 14.4114
lfoot -16.317 15.4103
ltoes -20.2627
1084
root -1.19315 14.9704 8.86 16.0698 5.29189 3.18749
lowerback 2.25457 -0.866014 1.5554
upperback -4.55035 -1.09077 -0.244571
thorax -6.01708 -0.618886 -1.04387
lowerneck -12.9887 -4.20013 2.85355
upperneck 22.467 -6.71096 0.756787
head 9.13049 -2.80848 -0.991098
rclavicle 1.87355e-014 3.97569e-016
rhumerus -18.1895 32.7639 -75.9858
rradius 82.585
rwrist -42.8757
rhand -3.68317 -15.7736
rfingers 7.12502
rthumb 22.0582 -44.5355
lclavicle 1.87355e-014 3.97569e-016
lhumerus -34.2648 -45.0079 103.497
lradius 115.11
lwrist -5.49015
lhand -21.892 5.83976
lfingers 7.12502
lthumb 4.51303 35.7717
rfemur -43.8301 -6.46553 7.86897
rtibia 50.9372
rfoot -15.673 -12.0196
rtoes -9.76642
lfemur -6.26319 -6.72514 -6.31622
ltibia 15.0679
lfoot -16.5975 15.4961
ltoes -20.4058
1085
root -1.1016 14.9955 8.81774 15.8957 5.19749 2.98214
lowerback 2.1698 -0.869811 1.55144
upperback -4.52945 -1.09359 -0.168493
thorax -5.94457 -0.617557 -0.963885
lowerneck -13.0475 -3.99559 3.0701
upperneck 22.6113 -6.44493 0.593947
head 9.18105 -2.67962 -1.05582
rclavicle -1.74931e-014 4.37326e-015
rhumerus -18.7081 32.1268 -77.6185
rradius 84.1235
rwrist -44.1421
rhand -3.25903 -15.9472
rfingers 7.12502
rthumb 22.4653 -44.6606
lclavicle -1.74931e-014 4.37326e-015
lhumerus -33.8705 -45.0889 103.656
lradius 114.635
lwrist -5.62471
lhand -21.9093 5.83262
lfingers 7.12502
lthumb 4.49635 35.7649
rfemur -43.2643 -6.1135 7.58586
rtibia 49.8824
rfoot -14.9437 -12.1579
rtoes -10.0021
lfemur -6.47868 -6.67579 -6.54496
ltibia 15.6021
lfoot -16.8366 15.6074
ltoes -20.544
1086
root -1.00573 15.0225 8.77398 15.7328 5.08072 2.78375
lowerback 2.12879 -0.873913 1.56064
upperback -4.53564 -1.09532 -0.0920716
thorax -5.92616 -0.616811 -0.890123
lowerneck -13.0841 -3.79187 3.28319
upperneck 22.7565 -6.1765 0.424027
head 9.22886 -2.55102 -1.12161
rclavicle 1.00883e-014 1.07344e-014
rhumerus -19.2651 31.53 -79.2539
rradius 85.5926
rwrist -45.2533
rhand -2.79863 -16.0623
rfingers 7.12502
rthumb 22.9072 -44.7215
lclavicle 1.00883e-014 1.07344e-014
lhumerus -33.5791 -45.1496 103.886
lradius 114.173
lwrist -5.80747
lhand -21.9249 5.81902
lfingers 7.12502
lthumb 4.48132 35.7516
rfemur -42.6867 -5.73893 7.27474
rtibia 48.7616
rfoot -14.1673 -12.2973
rtoes -10.2214
lfemur -6.64412 -6.62766 -6.80695
ltibia 16.0156
lfoot -17.0346 15.7535
ltoes -20.6461
1087
root -0.905828 15.0516 8.72806 15.5857 4.96052 2.6
lowerback 2.08178 -0.887478 1.55659
upperback -4.53121 -1.10982 0.00018577
thorax -5.89279 -0.621252 -0.791803
lowerneck -13.1277 -3.58387 3.49265
upperneck 22.8724 -5.8961 0.237383
head 9.26865 -2.41983 -1.19089
rclavicle -1.23743e-014 -3.57812e-015
rhumerus -19.778 30.9929 -80.8192
rradius 86.9909
rwrist -46.2204
rhand -2.30487 -16.1581
rfingers 7.12502
rthumb 23.381 -44.7579
lclavicle -1.23743e-014 -3.57812e-015
lhumerus -33.287 -45.1798 104.129
lradius 113.715
lwrist -6.01847
lhand -21.9303 5.80069
lfingers 7.12502
lthumb 4.47607 35.7334
rfemur -42.0953 -5.35415 6.93192
rtibia 47.5731
rfoot -13.3424 -12.4505
rtoes -10.4154
lfemur -6.77591 -6.58152 -7.10307
ltibia 16.3084
lfoot -17.1786 15.9211
ltoes -20.6807
1088
root -0.802184 15.0827 8.67985 15.4649 4.80763 2.4227
lowerback 2.02263 -0.899879 1.54101
upperback -4.52168 -1.12297 0.106205
thorax -5.84645 -0.624076 -0.673174
lowerneck -13.1719 -3.3716 3.70088
upperneck 22.9565 -5.6045 0.0358542
head 9.29842 -2.28612 -1.26328
rclavicle 5.2181e-015 -3.97569e-016
rhumerus -20.261 30.5218 -82.3116
rradius 88.3194
rwrist -47.0383
rhand -1.7941 -16.2239
rfingers 7.12502
rthumb 23.8709 -44.7605
lclavicle 5.2181e-015 -3.97569e-016
lhumerus -32.9967 -45.1821 104.379
lradius 113.26
lwrist -6.22113
lhand -21.9207 5.77399
lfingers 7.12502
lthumb 4.48537 35.7065
rfemur -41.515 -4.93307 6.56276
rtibia 46.315
rfoot -12.4574 -12.6221
rtoes -10.5948
lfemur -6.87779 -6.5098 -7.43063
ltibia 16.4871
lfoot -17.2771 16.1096
ltoes -20.5927
1089
root -0.695093 15.1157 8.629 15.3764 4.62552 2.26027
lowerback 1.96858 -0.909419 1.52595
upperback -4.52054 -1.13245 0.206539
thorax -5.81193 -0.625409 -0.560896
lowerneck -13.2126 -3.15714 3.92206
upperneck 23.0169 -5.3109 -0.169324
head 9.32018 -2.15151 -1.33842
rclavicle 3.27995e-015 1.39149e-014
rhumerus -20.7509 30.0922 -83.7614
rradius 89.5797
rwrist -47.7019
rhand -1.25147 -16.2662
rfingers 7.12502
rthumb 24.3912 -44.7338
lclavicle 3.27995e-015 1.39149e-014
lhumerus -32.7461 -45.1709 104.642
lradius 112.814
lwrist -6.37986
lhand -21.8925 5.74097
lfingers 7.12502
lthumb 4.51262 35.6729
rfemur -40.9535 -4.47686 6.15926
rtibia 44.99
rfoot -11.5069 -12.8234
rtoes -10.7675
lfemur -6.95892 -6.42011 -7.79375
ltibia 16.552
lfoot -17.3432 16.3076
ltoes -20.2974
1090
root -0.584676 15.1504 8.57536 15.3188 4.4136 2.11043
lowerback 1.91732 -0.917004 1.50598
upperback -4.52272 -1.13948 0.308072
thorax -5.78232 -0.625346 -0.44478
lowerneck -13.2524 -2.93886 4.15007
upperneck 23.0508 -5.01148 -0.379358
head 9.33375 -2.01491 -1.4153
rclavicle 2.83268e-014 2.78299e-015
rhumerus -21.2392 29.7124 -85.1517
rradius 90.7664
rwrist -48.2162
rhand -0.681473 -16.2574
rfingers 7.12502
rthumb 24.9375 -44.6503
lclavicle 2.83268e-014 2.78299e-015
lhumerus -32.5124 -45.1472 104.903
lradius 112.372
lwrist -6.45422
lhand -21.8554 5.70106
lfingers 7.12502
lthumb 4.54841 35.6322
rfemur -40.4116 -3.983 5.72385
rtibia 43.5996
rfoot -10.4825 -13.0627
rtoes -10.9544
lfemur -7.01902 -6.31879 -8.18853
ltibia 16.5039
lfoot -17.3706 16.5158
ltoes -19.8317
1091
root -0.471222 15.1863 8.51909 15.2908 4.16797 1.97642
lowerback 1.8676 -0.922793 1.46909
upperback -4.52746 -1.14463 0.415096
thorax -5.75575 -0.623514 -0.31362
lowerneck -13.2912 -2.71518 4.37933
upperneck 23.061 -4.70269 -0.595421
head 9.34036 -1.87518 -1.49304
rclavicle -9.93923e-016 2.78299e-015
rhumerus -21.7278 29.3911 -86.472
rradius 91.872
rwrist -48.5874
rhand -0.0728781 -16.185
rfingers 7.12502
rthumb 25.5206 -44.4958
lclavicle -9.93923e-016 2.78299e-015
lhumerus -32.2989 -45.107 105.167
lradius 111.935
lwrist -6.42935
lhand -21.8196 5.65377
lfingers 7.12502
lthumb 4.58293 35.5842
rfemur -39.8935 -3.45002 5.25331
rtibia 42.149
rfoot -9.37443 -13.3448
rtoes -11.168
lfemur -7.05347 -6.21483 -8.61678
ltibia 16.3401
lfoot -17.363 16.7378
ltoes -19.2042
